<svg xmlns="http://www.w3.org/2000/svg" width="165" height="200" viewBox="0 0 165 200" version="1.1">
	<path d="M 77.834 29.785 C 74.110 34.211, 73.753 35.599, 67.023 71.832 C 63.720 89.614, 60.762 104.577, 60.449 105.082 C 60.137 105.587, 58.617 106, 57.072 106 C 51.592 106, 36.867 109.052, 32.544 111.084 C 27.699 113.362, 26.321 115.478, 28.206 117.749 C 28.889 118.571, 35.437 122.090, 42.757 125.568 L 56.067 131.892 55.283 138.696 C 54.853 142.438, 54.500 149.993, 54.500 155.484 C 54.500 163.682, 54.776 165.521, 56.041 165.767 C 57.317 166.015, 57.580 164.812, 57.566 158.783 C 57.545 149.272, 59.873 135, 61.447 135 C 63.950 135, 81.748 147.609, 87.500 153.457 C 90.800 156.812, 94.850 162.019, 96.500 165.029 C 99.305 170.145, 99.489 171.133, 99.325 180.250 C 99.145 190.223, 99.438 190.906, 103.066 188.965 C 105.197 187.824, 105.667 182.824, 104.145 177.493 C 102.943 173.284, 104.174 164.360, 110.111 134.250 L 115.287 108 122.894 107.985 C 131.729 107.967, 130.999 106.455, 121.640 105.386 L 115.780 104.717 116.435 99.608 C 116.795 96.799, 119.787 81.055, 123.083 64.622 C 126.380 48.189, 128.845 34.512, 128.563 34.229 C 127.866 33.532, 125.130 35.888, 123.842 38.295 C 123.266 39.372, 120.010 54.484, 116.607 71.877 L 110.420 103.500 88.460 104.098 C 76.382 104.427, 66.391 104.618, 66.258 104.522 C 65.811 104.203, 77.043 45.664, 79.086 37.664 C 81.678 27.511, 81.372 25.581, 77.834 29.785 M 73.180 108.039 C 69.154 108.462, 65.714 108.963, 65.536 109.154 C 65.358 109.344, 64.266 114.225, 63.108 120 C 61.214 129.453, 61.160 130.600, 62.569 131.500 C 80.938 143.238, 89.351 150.175, 95.695 158.817 L 100.475 165.327 101.170 162.414 C 101.552 160.811, 103.528 148.250, 105.561 134.500 C 107.594 120.750, 109.472 108.938, 109.736 108.250 C 110.106 107.281, 106.874 107.031, 95.357 107.136 C 87.186 107.210, 77.206 107.617, 73.180 108.039 M 48 111.547 C 39.315 113.130, 32.750 115.249, 32.295 116.616 C 32.031 117.406, 54.291 128, 56.215 128 C 56.547 128, 57.343 124.737, 57.984 120.750 C 58.624 116.763, 59.370 112.713, 59.642 111.750 C 60.239 109.631, 58.662 109.603, 48 111.547" stroke="none" fill="black" fill-rule="evenodd"/>
</svg>